<svg width="18" height="18" fill="none" xmlns="http://www.w3.org/2000/svg">
<path d="M15.4726 0H2.053C0.921348 0 0 0.92 0 2.06V15.58C0 16.72 0.921348 17.64 2.053 17.64H13.4096L12.8788 15.79L14.1607 16.98L15.3725 18.1L17.5256 20V2.06C17.5256 0.92 16.6043 0 15.4726 0ZM11.607 13.06C11.607 13.06 11.2464 12.63 10.946 12.25C12.2579 11.88 12.7587 11.06 12.7587 11.06C12.3481 11.33 11.9575 11.52 11.607 11.65C11.1062 11.86 10.6255 12 10.1549 12.08C9.19345 12.26 8.31216 12.21 7.56106 12.07C6.99022 11.96 6.49951 11.8 6.08891 11.64C5.85857 11.55 5.6082 11.44 5.35784 11.3C5.32779 11.28 5.29775 11.27 5.2677 11.25C5.24768 11.24 5.23766 11.23 5.22765 11.22C5.04738 11.12 4.94724 11.05 4.94724 11.05C4.94724 11.05 5.42794 11.85 6.6998 12.23C6.39936 12.61 6.02882 13.06 6.02882 13.06C3.81558 12.99 2.97435 11.54 2.97435 11.54C2.97435 8.32 4.41646 5.71 4.41646 5.71C5.85857 4.63 7.23058 4.66 7.23058 4.66L7.33072 4.78C5.52809 5.3 4.69687 6.09 4.69687 6.09C4.69687 6.09 4.91719 5.97 5.28773 5.8C6.3593 5.33 7.21055 5.2 7.56106 5.17C7.62115 5.16 7.67122 5.15 7.73131 5.15C8.3422 5.07 9.03321 5.05 9.75427 5.13C10.7057 5.24 11.7272 5.52 12.7687 6.09C12.7687 6.09 11.9775 5.34 10.275 4.82L10.4152 4.66C10.4152 4.66 11.7872 4.63 13.2293 5.71C13.2293 5.71 14.6715 8.32 14.6715 11.54C14.6715 11.54 13.8202 12.99 11.607 13.06ZM6.95017 8.39C6.37933 8.39 5.92867 8.89 5.92867 9.5C5.92867 10.11 6.38935 10.61 6.95017 10.61C7.521 10.61 7.97166 10.11 7.97166 9.5C7.98167 8.89 7.521 8.39 6.95017 8.39ZM10.6055 8.39C10.0347 8.39 9.58402 8.89 9.58402 9.5C9.58402 10.11 10.0447 10.61 10.6055 10.61C11.1763 10.61 11.627 10.11 11.627 9.5C11.627 8.89 11.1763 8.39 10.6055 8.39Z" fill="#153954"/>
</svg>
