<svg xmlns="http://www.w3.org/2000/svg" width="30" height="30" fill="none"><path fill-rule="evenodd" d="M4 0a4 4 0 0 0-4 4v22a4 4 0 0 0 4 4h22a4 4 0 0 0 4-4V4a4 4 0 0 0-4-4H4zm14.146 7.001c1.547.268 3.052.735 4.478 1.39.021.015.025.02.027.026 2.485 3.653 3.712 7.776 3.253 12.521-.001.01-.004.02-.009.029s-.012.016-.02.022c-1.663 1.232-3.523 2.171-5.501 2.778-.014.004-.029.004-.043 0s-.026-.014-.034-.026c-.415-.578-.793-1.188-1.123-1.827-.005-.009-.007-.018-.008-.028s.001-.02.004-.029.009-.018.016-.025.016-.013.025-.016c.594-.224 1.169-.497 1.717-.817.01-.006.018-.014.024-.024s.009-.021.01-.033a.07.07 0 0 0-.029-.06 9.47 9.47 0 0 1-.341-.268c-.01-.008-.022-.013-.035-.015s-.026 0-.038.005c-3.557 1.645-7.455 1.645-11.056 0-.011-.005-.024-.007-.036-.005s-.024.007-.034.015a9.47 9.47 0 0 1-.341.268.07.07 0 0 0-.021.026c-.008.016-.01.034-.004.051s.017.031.032.04a12.21 12.21 0 0 0 1.716.818c.009.003.018.008.025.015s.018.024.02.038 0 .03-.007.043c-.325.641-.701 1.25-1.125 1.827-.008.012-.02.021-.034.026s-.029.005-.043 0c-1.975-.608-3.833-1.547-5.493-2.777-.015-.012-.027-.032-.029-.051-.384-4.104.399-8.261 3.25-12.522.006-.011.017-.02.029-.025 1.426-.656 2.932-1.123 4.478-1.39a.07.07 0 0 1 .041.006c.013.006.023.016.03.028.21.371.399.753.567 1.145a16.76 16.76 0 0 1 5.03 0 12.57 12.57 0 0 1 .558-1.145c.007-.012.017-.022.03-.029s.027-.008.041-.006zm-8.771 9.221c0 1.221.892 2.217 1.977 2.217 1.101 0 1.977-.995 1.977-2.216.017-1.214-.868-2.218-1.977-2.218-1.101 0-1.977.995-1.977 2.218zm7.309 0c0 1.221.894 2.217 1.977 2.217 1.11 0 1.977-.995 1.977-2.216.018-1.214-.868-2.218-1.977-2.218-1.101 0-1.977.995-1.977 2.218z" fill="#fff"/></svg>
