<svg xmlns="http://www.w3.org/2000/svg" width="30" height="30" fill="none"><path d="M25 9.414c-.729.326-1.517.547-2.363.664.885-.521 1.491-1.283 1.816-2.285-.846.495-1.719.827-2.617.996-.794-.859-1.79-1.289-2.988-1.289a3.95 3.95 0 0 0-2.9 1.201 3.95 3.95 0 0 0-1.201 2.9c0 .378.033.69.098.938-1.68-.091-3.255-.514-4.727-1.27s-2.721-1.764-3.75-3.027c-.378.651-.566 1.341-.566 2.07 0 1.484.592 2.624 1.777 3.418-.612-.013-1.263-.182-1.953-.508v.039c0 .977.326 1.846.977 2.607a4.1 4.1 0 0 0 2.402 1.416c-.378.104-.71.156-.996.156-.169 0-.423-.026-.762-.078a4.17 4.17 0 0 0 1.455 2.031c.697.534 1.488.807 2.373.82-1.51 1.172-3.21 1.758-5.098 1.758-.339 0-.664-.02-.977-.059 1.927 1.224 4.023 1.836 6.289 1.836 1.458 0 2.826-.231 4.102-.693s2.37-1.081 3.281-1.855 1.696-1.667 2.354-2.676 1.146-2.064 1.465-3.164a11.77 11.77 0 0 0 .479-3.291l-.02-.527c.82-.586 1.504-1.296 2.051-2.129zm5-3.789v18.75c0 1.549-.55 2.874-1.65 3.975S25.925 30 24.375 30H5.625c-1.549 0-2.874-.55-3.975-1.65S0 25.925 0 24.375V5.625C0 4.076.55 2.751 1.65 1.65S4.076 0 5.625 0h18.75c1.549 0 2.874.55 3.975 1.65S30 4.076 30 5.625z" fill="#fff"/></svg>