<svg xmlns="http://www.w3.org/2000/svg" width="30" height="30" fill="none"><path d="M5.879 0A5.9 5.9 0 0 0 0 5.879v18.243A5.9 5.9 0 0 0 5.879 30h18.243A5.9 5.9 0 0 0 30 24.122V5.879A5.9 5.9 0 0 0 24.122 0H5.879zm1.479 4.951c1.55 0 2.505 1.018 2.534 2.355 0 1.308-.984 2.354-2.564 2.354h-.029c-1.521 0-2.503-1.046-2.503-2.354 0-1.338 1.013-2.355 2.562-2.355h0zm13.358 6.252c2.981 0 5.216 1.948 5.216 6.136v7.817h-4.53v-7.293c0-1.833-.656-3.083-2.295-3.083-1.252 0-1.998.843-2.325 1.657-.12.291-.149.698-.149 1.105v7.614h-4.531V11.522h4.532v1.931c.602-.929 1.679-2.25 4.083-2.25h0zm-15.653.321h4.531v13.632H5.062V11.523z" fill="#fff"/></svg>