<svg width="175" height="121" viewBox="0 0 175 121" fill="none" xmlns="http://www.w3.org/2000/svg">
	<g filter="url(#filter0_d_5232_4434)">
		<path
			d="M147.832 107.577L7.97302 85.794C7.82353 85.7708 7.68008 85.7183 7.55093 85.6396C7.42177 85.5608 7.30947 85.4573 7.22039 85.3351C7.13132 85.2128 7.06724 85.0741 7.03186 84.9271C6.99649 84.78 6.9905 84.6274 7.01424 84.478L18.9242 7.97431C18.9796 7.67505 19.1474 7.40833 19.3933 7.22892C19.6391 7.04952 19.9443 6.97104 20.2462 7.0096L160.105 28.8227C160.407 28.8697 160.679 29.0346 160.859 29.2813C161.04 29.528 161.116 29.8364 161.07 30.1388L149.16 106.642C149.106 106.942 148.936 107.208 148.688 107.383C148.439 107.558 148.132 107.628 147.832 107.577ZM11.4626 82.1853L145.569 103.075L156.562 32.5029L22.4734 11.6128L11.4626 82.1853Z"
			fill="#147CB6" />
		<path
			d="M20.1746 76.8137C20.1302 77.084 20.0067 77.3351 19.8198 77.5354C19.6329 77.7357 19.3909 77.8761 19.1243 77.9391C18.8577 78.002 18.5784 77.9846 18.3217 77.8891C18.0649 77.7936 17.8422 77.6242 17.6815 77.4023C17.5209 77.1804 17.4296 76.9159 17.419 76.6422C17.4084 76.3684 17.4791 76.0977 17.6222 75.864C17.7653 75.6304 17.9743 75.4444 18.2229 75.3294C18.4716 75.2144 18.7487 75.1755 19.0194 75.2178C19.2007 75.2452 19.3747 75.3085 19.5313 75.404C19.6879 75.4994 19.8239 75.6251 19.9315 75.7736C20.039 75.9222 20.1159 76.0906 20.1576 76.2692C20.1994 76.4478 20.2052 76.6329 20.1746 76.8137Z"
			fill="#147CB6" />
		<path
			d="M38.8738 79.72C38.8305 79.9908 38.7079 80.2427 38.5215 80.4438C38.3351 80.645 38.0933 80.7864 37.8266 80.8502C37.5599 80.914 37.2803 80.8974 37.023 80.8024C36.7658 80.7074 36.5424 80.5382 36.3813 80.3164C36.2201 80.0945 36.1282 79.8299 36.1173 79.5559C36.1064 79.2819 36.177 79.0108 36.3201 78.7768C36.4632 78.5429 36.6724 78.3566 36.9213 78.2415C37.1702 78.1263 37.4476 78.0876 37.7185 78.13C38.0821 78.1886 38.4077 78.3887 38.6242 78.6867C38.8407 78.9846 38.9304 79.3561 38.8738 79.72Z"
			fill="#147CB6" />
		<path
			d="M29.5244 78.2494C29.4822 78.5218 29.3601 78.7757 29.1736 78.9787C28.9871 79.1818 28.7446 79.3249 28.4767 79.3901C28.2088 79.4552 27.9276 79.4394 27.6686 79.3447C27.4097 79.25 27.1847 79.0806 27.0221 78.8579C26.8595 78.6353 26.7666 78.3694 26.7551 78.0939C26.7437 77.8184 26.8142 77.5457 26.9578 77.3104C27.1014 77.075 27.3115 76.8875 27.5617 76.7716C27.8119 76.6558 28.0908 76.6167 28.3632 76.6594C28.5445 76.6862 28.7186 76.7488 28.8754 76.8436C29.0322 76.9383 29.1686 77.0633 29.2767 77.2113C29.3848 77.3592 29.4623 77.5272 29.5049 77.7054C29.5474 77.8837 29.5541 78.0686 29.5244 78.2494Z"
			fill="#147CB6" />
		<path
			d="M48.2226 81.1791C48.1804 81.4515 48.0583 81.7053 47.8718 81.9084C47.6853 82.1114 47.4428 82.2546 47.1749 82.3197C46.907 82.3849 46.6258 82.3691 46.3668 82.2744C46.1079 82.1796 45.8829 82.0102 45.7203 81.7876C45.5577 81.5649 45.4648 81.2991 45.4533 81.0236C45.4419 80.7481 45.5124 80.4754 45.656 80.2401C45.7996 80.0047 46.0098 79.8172 46.2599 79.7013C46.5101 79.5854 46.789 79.5464 47.0614 79.5891C47.4254 79.6477 47.7515 79.8476 47.969 80.1453C48.1864 80.443 48.2775 80.8145 48.2226 81.1791Z"
			fill="#147CB6" />
		<path d="M57.5776 82.6359C57.5162 83.0005 57.3136 83.3261 57.0138 83.5424C56.7139 83.7586 56.341 83.848 55.9757 83.7912C55.7954 83.763 55.6225 83.6996 55.4667 83.6047C55.311 83.5097 55.1754 83.3849 55.0679 83.2376C54.8506 82.9399 54.7606 82.5682 54.8174 82.2042C54.8743 81.8401 55.0734 81.5136 55.3711 81.2964C55.6687 81.0792 56.0404 80.9891 56.4044 81.0459C56.7706 81.1018 57.0996 81.3005 57.3195 81.5985C57.5394 81.8965 57.6322 82.2696 57.5776 82.6359Z" fill="#147CB6" />
		<path
			d="M76.2526 85.5489C76.2093 85.8182 76.0878 86.0687 75.903 86.2692C75.7182 86.4697 75.4785 86.6113 75.2137 86.6764C74.9489 86.7414 74.6708 86.727 74.4142 86.635C74.1575 86.5429 73.9337 86.3773 73.7706 86.1588C73.6076 85.9403 73.5125 85.6785 73.4973 85.4063C73.4821 85.1341 73.5474 84.8634 73.6851 84.6281C73.8228 84.3928 74.0269 84.2032 74.2717 84.0832C74.5165 83.9631 74.7912 83.9178 75.0616 83.953C75.2461 83.9762 75.424 84.0363 75.5847 84.1299C75.7454 84.2235 75.8855 84.3485 75.9967 84.4975C76.1079 84.6465 76.1879 84.8165 76.2319 84.9971C76.2758 85.1778 76.2829 85.3655 76.2526 85.5489Z"
			fill="#147CB6" />
		<path
			d="M66.9099 84.0843C66.8686 84.3574 66.747 84.6121 66.5607 84.816C66.3744 85.0199 66.1316 85.1638 65.8634 85.2294C65.5951 85.2951 65.3133 85.2795 65.0539 85.1847C64.7945 85.0899 64.569 84.9201 64.4063 84.697C64.2435 84.4738 64.1508 84.2073 64.1398 83.9313C64.1288 83.6553 64.2001 83.3823 64.3446 83.1469C64.489 82.9115 64.7002 82.7244 64.9513 82.6092C65.2024 82.4941 65.482 82.4562 65.7546 82.5003C65.9348 82.5279 66.1077 82.5908 66.2634 82.6854C66.4191 82.7801 66.5546 82.9046 66.662 83.0519C66.7693 83.1991 66.8465 83.3661 66.8891 83.5433C66.9316 83.7205 66.9387 83.9044 66.9099 84.0843Z"
			fill="#147CB6" />
		<path
			d="M85.6079 86.9962C85.5669 87.2664 85.447 87.5184 85.2633 87.7207C85.0796 87.923 84.8403 88.0665 84.5754 88.1333C84.3104 88.2001 84.0316 88.1872 83.774 88.0962C83.5164 88.0052 83.2913 87.8401 83.1271 87.6217C82.9629 87.4034 82.8669 87.1413 82.851 86.8686C82.8351 86.5958 82.9001 86.3244 83.0378 86.0884C83.1756 85.8524 83.3799 85.6624 83.6253 85.5421C83.8706 85.4218 84.146 85.3766 84.4169 85.4122C84.5996 85.437 84.7755 85.4978 84.9345 85.5911C85.0934 85.6844 85.2323 85.8083 85.3431 85.9556C85.4539 86.1029 85.5343 86.2707 85.5798 86.4494C85.6252 86.628 85.6348 86.8139 85.6079 86.9962Z"
			fill="#147CB6" />
		<path
			d="M94.9634 88.455C94.9034 88.8194 94.7023 89.1456 94.4036 89.3629C94.1049 89.5802 93.7327 89.6712 93.3675 89.6162C93.0973 89.572 92.8463 89.4488 92.646 89.2623C92.4457 89.0757 92.305 88.8341 92.2417 88.5678C92.1784 88.3015 92.1953 88.0224 92.2902 87.7657C92.3852 87.5089 92.5539 87.286 92.7753 87.1249C92.9966 86.9639 93.2606 86.8719 93.5341 86.8606C93.8076 86.8492 94.0784 86.919 94.3123 87.0612C94.5462 87.2034 94.7328 87.4116 94.8487 87.6596C94.9646 87.9076 95.0045 88.1843 94.9634 88.455Z"
			fill="#147CB6" />
		<path
			d="M113.644 91.3494C113.62 91.5318 113.56 91.7075 113.468 91.8665C113.375 92.0254 113.252 92.1644 113.105 92.2752C112.958 92.386 112.79 92.4666 112.612 92.5121C112.434 92.5576 112.248 92.5672 112.066 92.5404C111.883 92.5141 111.707 92.452 111.548 92.3575C111.389 92.263 111.25 92.138 111.139 91.9897C111.029 91.8415 110.948 91.6728 110.903 91.4934C110.858 91.314 110.848 91.1275 110.875 90.9444C110.932 90.5804 111.131 90.2538 111.429 90.0366C111.727 89.8194 112.098 89.7293 112.462 89.7862C112.826 89.843 113.153 90.0422 113.37 90.3398C113.587 90.6374 113.677 91.0091 113.621 91.3732L113.644 91.3494Z"
			fill="#147CB6" />
		<path
			d="M104.306 89.915C104.265 90.1866 104.145 90.4399 103.96 90.6431C103.775 90.8464 103.535 90.9905 103.268 91.0574C103.002 91.1243 102.722 91.1111 102.463 91.0193C102.204 90.9274 101.978 90.7612 101.813 90.5414C101.649 90.3216 101.553 90.058 101.537 89.7838C101.522 89.5096 101.588 89.2369 101.727 89.0001C101.866 88.7633 102.072 88.5729 102.319 88.4528C102.566 88.3327 102.843 88.2883 103.115 88.3251C103.299 88.3491 103.476 88.4095 103.636 88.503C103.795 88.5964 103.935 88.7209 104.046 88.869C104.157 89.0172 104.237 89.1861 104.282 89.3657C104.327 89.5454 104.335 89.7321 104.306 89.915Z"
			fill="#147CB6" />
		<path
			d="M122.994 92.8263C122.952 93.096 122.831 93.3472 122.647 93.5486C122.462 93.75 122.223 93.8926 121.958 93.9586C121.693 94.0245 121.415 94.0108 121.158 93.9193C120.9 93.8278 120.676 93.6624 120.512 93.444C120.349 93.2255 120.253 92.9636 120.238 92.6911C120.222 92.4186 120.287 92.1476 120.425 91.9119C120.563 91.6763 120.767 91.4865 121.012 91.3663C121.257 91.2462 121.532 91.2009 121.803 91.2363C121.987 91.2595 122.164 91.3195 122.324 91.4127C122.484 91.5059 122.624 91.6304 122.735 91.7787C122.847 91.9271 122.927 92.0963 122.971 92.2763C123.015 92.4562 123.023 92.6433 122.994 92.8263Z"
			fill="#147CB6" />
		<path
			d="M132.348 94.2861C132.306 94.5572 132.185 94.8097 131.999 95.0121C131.814 95.2145 131.573 95.3576 131.307 95.4237C131.041 95.4897 130.761 95.4757 130.503 95.3834C130.244 95.291 130.019 95.1245 129.855 94.9046C129.691 94.6847 129.595 94.4213 129.58 94.1474C129.565 93.8735 129.631 93.6012 129.77 93.3647C129.91 93.1282 130.115 92.9381 130.362 92.8181C130.609 92.6981 130.885 92.6536 131.157 92.6902C131.341 92.7164 131.517 92.7786 131.676 92.8731C131.835 92.9676 131.974 93.0925 132.084 93.2408C132.195 93.3891 132.275 93.5578 132.321 93.7371C132.366 93.9165 132.375 94.1031 132.348 94.2861Z"
			fill="#147CB6" />
		<path
			d="M141.692 95.7319C141.65 96.0059 141.527 96.261 141.338 96.4645C141.15 96.6681 140.906 96.8109 140.636 96.8746C140.366 96.9383 140.083 96.9201 139.824 96.8223C139.564 96.7245 139.34 96.5516 139.179 96.3256C139.019 96.0996 138.929 95.8308 138.922 95.5536C138.915 95.2765 138.991 95.0035 139.14 94.7697C139.289 94.5359 139.504 94.3518 139.759 94.241C140.013 94.1303 140.294 94.0978 140.567 94.1479C140.923 94.2148 141.239 94.4173 141.449 94.7127C141.659 95.0082 141.746 95.3735 141.692 95.7319Z"
			fill="#147CB6" />
		<path d="M58.0005 25.748L71.167 27.8263L70.6311 31.2266L61.4246 29.7736L60.7696 33.817L69.7795 35.2403L69.2435 38.6465L60.2336 37.2233L59.0069 44.9648L55.0469 44.3693L58.0005 25.748Z" fill="#147CB6" />
		<path d="M78.9084 41.2853L76.0024 40.8267L74.9543 47.4963L70.9883 46.871L73.93 28.2617L82.6362 29.6373C86.5129 30.2328 88.4781 33.1627 87.9362 36.6225C87.4121 39.9156 85.0718 41.3448 82.9876 41.5056L86.0544 49.2471L81.5048 48.5325L78.9084 41.2853ZM81.5108 32.9483L77.3423 32.2932L76.5324 37.4264L80.7009 38.0815C82.2908 38.3316 83.6486 37.486 83.8928 35.9556C84.1369 34.4251 83.1007 33.1984 81.5108 32.9483Z" fill="#147CB6" />
		<path d="M91.8665 31.0977L105.033 33.1759L104.497 36.5822L95.3085 35.1292L94.6713 39.1726L103.645 40.5959L103.109 43.9961L94.1175 42.5729L93.4326 46.9022L102.639 48.3552L102.097 51.7853L88.9307 49.707L91.8665 31.0977Z" fill="#147CB6" />
		<path d="M108.136 33.6699L121.303 35.7482L120.761 39.1485L111.554 37.6955L110.917 41.7389L119.927 43.1681L119.391 46.5684L110.381 45.1452L109.696 49.4685L118.903 50.9215L118.361 54.3516L105.194 52.2733L108.136 33.6699Z" fill="#147CB6" />
		<path d="M27.0707 47.5039L39.2605 49.4274L38.933 51.4938L29.0596 49.9335L28.1128 55.9302L37.7896 57.4606L37.4621 59.5211L27.7853 58.0025L26.4454 66.4824L24.1289 66.1132L27.0707 47.5039Z" fill="#147CB6" />
		<path d="M50.9441 50.9573C56.4346 51.8267 59.5253 56.549 58.6856 62.0395C57.846 67.53 53.3976 71.103 47.9011 70.2097C42.4047 69.3165 39.32 64.618 40.1894 59.1216C41.0589 53.6251 45.4179 50.0878 50.9441 50.9573ZM50.6166 53.0237C46.4481 52.3627 43.2741 55.1496 42.5893 59.5027C41.9045 63.8558 44.0423 67.4824 48.2287 68.1434C52.415 68.8044 55.5711 65.9876 56.256 61.6643C56.9408 57.341 54.7732 53.6787 50.6464 53.0237H50.6166Z" fill="#147CB6" />
		<path d="M68.0107 65.4629L64.3008 64.8674L63.1515 72.2933L60.835 71.93L63.747 53.2969L71.2205 54.4879C74.6207 55.0238 76.705 57.5845 76.1631 61.0384C76.0217 62.406 75.3449 63.6621 74.2804 64.5324C73.216 65.4026 71.8505 65.8164 70.482 65.6832L74.3051 74.0679L71.5718 73.6331L68.0107 65.4629ZM70.625 56.5006L65.7419 55.7265L64.6223 62.8427L69.5054 63.6109C71.7088 63.9622 73.4476 62.7177 73.7752 60.6334C74.1027 58.5492 72.8283 56.846 70.625 56.5006Z" fill="#147CB6" />
		<path d="M80.7191 55.9766L92.9268 57.906L92.5993 59.9664L82.7259 58.4062L81.7791 64.4029L91.456 65.9333L91.1284 67.9997L81.4516 66.4692L80.4214 72.8887L90.2947 74.4489L89.9672 76.5153L77.7773 74.5918L80.7191 55.9766Z" fill="#147CB6" />
		<path d="M94.666 58.1797L97.316 58.6025L101.056 75.6576L109.869 60.5855L112.519 61.0023L102.08 78.4207L99.2037 77.9681L94.666 58.1797Z" fill="#147CB6" />
		<path d="M114.96 61.3848L127.15 63.3142L126.823 65.3746L116.949 63.8144L116.002 69.817L125.679 71.3415L125.352 73.4079L115.669 71.8775L114.657 78.2969L124.53 79.8571L124.208 81.9176L112.019 79.9941L114.96 61.3848Z" fill="#147CB6" />
		<path d="M135.076 76.0569L131.366 75.4614L130.175 82.8515L127.858 82.4882L130.8 63.8789L138.274 65.0699C141.68 65.6059 143.758 68.1665 143.216 71.6204C143.078 72.9886 142.403 74.2462 141.339 75.1178C140.276 75.9895 138.91 76.4042 137.541 76.2712L141.358 84.6499L138.625 84.2211L135.076 76.0569ZM137.696 67.1244L132.825 66.3383L131.699 73.4486L136.582 74.2227C138.786 74.5681 140.525 73.3295 140.858 71.2452C141.192 69.161 139.899 67.4459 137.696 67.0946V67.1244Z" fill="#147CB6" />
	</g>
	<defs>
		<filter id="filter0_d_5232_4434" x="0" y="0" width="174.083" height="120.594" color-interpolation-filters="sRGB">
			<feFlood flood-opacity="0" result="BackgroundImageFix" />
			<feColorMatrix in="SourceAlpha" values="0 0 0 0 0 0 0 0 0 0 0 0 0 0 0 0 0 0 127 0" result="hardAlpha" />
			<feOffset dx="3" dy="3" />
			<feGaussianBlur stdDeviation="5" />
			<feColorMatrix values="0 0 0 0 0 0 0 0 0 0 0 0 0 0 0 0 0 0 0.15 0" />
			<feBlend in2="BackgroundImageFix" result="effect1_dropShadow_5232_4434" />
			<feBlend in="SourceGraphic" in2="effect1_dropShadow_5232_4434" result="shape" />
		</filter>
	</defs>
</svg>
