<?xml version="1.0" encoding="UTF-8"?>
<svg width="140" height="116.61" fill="none" version="1.1" viewBox="0 0 140 116.61" xmlns="http://www.w3.org/2000/svg">
    <path d="m14.059 55.28c0.5566-8.4245 3.4988-16.516 8.4822-23.328l-9.8699-9.8779c-7.2769 9.2304-11.85 20.695-12.486 33.207z" fill="#24c4a1"/>
    <path d="m24.542 87.196c-5.167-6.0865-8.6026-13.452-9.9464-21.325h-13.986c1.5302 11.861 6.5998 22.605 14.124 31.14z" fill="#147cb6"/>
    <path d="m63.916 0.0019531v13.925c8.6953 1.0293 16.893 4.6056 23.566 10.28l9.8088-9.8172c-9.0685-8.0061-20.631-13.241-33.374-14.388z" fill="#9fefde"/>
    <path d="m29.756 24.196c6.5199-5.5308 14.643-9.2182 23.576-10.272v-13.924c-12.748 1.1422-24.313 6.3741-33.384 14.379z" fill="#76c1a3"/>
    <path d="m84.943 94.406c-6.179 4.5269-13.422 7.3778-21.027 8.2768v13.924c11.613-1.046 22.24-5.486 30.898-12.323z" fill="#153954"/>
    <g fill="#244583">
        <path d="m53.333 102.68c-7.6073-0.894-14.854-3.7431-21.036-8.269l-9.8698 9.878c8.6612 6.836 19.293 11.274 30.908 12.314z"/>
        <path d="m33.415 47.711c0-10.784 6.0686-16.176 18.206-16.176 4.3344 0 8.2045 0.4648 11.61 1.3946v12.922c-3.2808-0.9903-6.206-1.4854-8.7758-1.4854s-4.3812 0.3253-5.4343 0.976c-1.0536 0.6505-1.58 1.8434-1.5792 3.5787v21.011c0 1.735 0.5264 2.9279 1.5792 3.5786s2.8642 0.9761 5.4343 0.9761c2.5695 0 5.4952-0.4957 8.777-1.4871v12.922c-3.4062 0.9298-7.2763 1.3946-11.61 1.3946-12.138-0.0025-18.207-5.3954-18.207-16.179z"/>
        <path d="m69.723 33.3c3.4054-1.177 8.2663-1.7657 14.583-1.7663s10.837 1.3784 13.561 4.137c2.7248 2.7588 4.0878 6.9263 4.0878 12.503v38.674h-13.098v-3.9976c-1.7958 2.7904-4.9228 4.1848-9.381 4.1834-4.4581-0.0014-7.6784-1.0705-9.6607-3.2073-1.9815-2.1377-2.9721-5.5615-2.9718-10.271v-3.1613c0-4.1521 0.9133-7.3435 2.7401-9.5744 1.8267-2.2309 4.7845-3.9048 8.8732-5.0218l10.121-2.6038v-5.1122c-0.0622-1.6106-0.5267-2.7417-1.3935-3.3932-0.8668-0.6516-2.4457-0.9769-4.7367-0.9761-5.1404 0-9.3823 0.6507-12.726 1.9521zm10.866 37.65v2.6025c0 2.1067 1.0836 3.1601 3.2508 3.1601 1.8585 0 3.4068-0.3407 4.6447-1.0221v-11.249l-4.2721 1.1154c-1.5493 0.4336-2.5403 0.9917-2.9731 1.6742-0.4327 0.6825-0.6494 1.922-0.6503 3.7185z"/>
        <path d="m107.7 46.498c0-4.9579 1.502-8.6918 4.505-11.202 3.003-2.51 7.849-3.7656 14.537-3.767 4.581 0 8.358 0.4649 11.331 1.3946v12.364c-2.788-0.9301-5.838-1.3951-9.149-1.3951s-5.416 0.2791-6.315 0.8371c-0.898 0.5581-1.347 1.4569-1.346 2.6964v0.7454c0 0.7442 0.232 1.3795 0.696 1.9061 0.464 0.5265 1.471 1.3168 3.019 2.3707l7.523 5.0201c2.353 1.5492 4.164 3.2535 5.434 5.113s1.905 4.1834 1.904 6.9718v2.3234c0 10.289-6.749 15.433-20.249 15.432-4.706 0-8.731-0.403-12.074-1.2088v-12.549c2.91 0.8678 6.13 1.3016 9.66 1.3013 3.531-3e-4 5.869-0.2944 7.014-0.8823 1.145-0.5885 1.718-1.4719 1.718-2.6503v-0.8371c0-0.93-0.309-1.6738-0.929-2.2313-0.743-0.7428-4.304-3.2217-10.681-7.4368-4.397-2.9742-6.595-6.9407-6.595-11.9z"/>
    </g>
</svg>
