<svg width="40" height="42" viewBox="0 0 40 42" fill="none" xmlns="http://www.w3.org/2000/svg">
	<path fill-rule="evenodd" clip-rule="evenodd" d="M36.9231 0.660156H3.07692C2.26087 0.660156 1.47824 0.989119 0.90121 1.57468C0.324175 2.16024 0 2.95442 0 3.78253V37.9502C0 38.7783 0.324175 39.5725 0.90121 40.158C1.47824 40.7436 2.26087 41.0726 3.07692 41.0726H36.9231C37.7391 41.0726 38.5218 40.7436 39.0988 40.158C39.6758 39.5725 40 38.7783 40 37.9502V3.78253C40 2.95442 39.6758 2.16024 39.0988 1.57468C38.5218 0.989119 37.7391 0.660156 36.9231 0.660156Z" fill="#33A9DE" />
	<path fill-rule="evenodd" clip-rule="evenodd" d="M36.9231 0.394531H3.07692C2.26087 0.394531 1.47824 0.723494 0.90121 1.30905C0.324175 1.89461 0 2.6888 0 3.5169V37.6846C0 38.5127 0.324175 39.3068 0.90121 39.8924C1.47824 40.478 2.26087 40.8069 3.07692 40.8069H36.9231C37.7391 40.8069 38.5218 40.478 39.0988 39.8924C39.6758 39.3068 40 38.5127 40 37.6846V3.5169C40 2.6888 39.6758 1.89461 39.0988 1.30905C38.5218 0.723494 37.7391 0.394531 36.9231 0.394531Z" fill="#76D4FF" />
	<path fill-rule="evenodd" clip-rule="evenodd"
		d="M19.6035 5.86247C19.4189 5.94276 19.753 5.60376 11.5684 14.052C3.53323 22.3486 3.964 21.8847 3.964 22.2415C3.964 22.9641 4.20136 23.0533 6.09147 23.0533H7.52444V28.6201C7.52444 34.4009 7.52444 34.2403 7.68268 34.4455C7.84092 34.6507 7.56839 34.6418 13.6783 34.6418C16.8167 34.6418 19.375 34.624 19.375 34.615C19.375 34.6061 18.8827 34.0798 18.2761 33.4642L17.1772 32.3491H14.8915L14.786 32.5275C13.9948 33.8924 12.0431 32.813 12.6849 31.3678C13.0717 30.5024 14.4167 30.5203 14.8299 31.3856L14.9003 31.5283H15.6035C15.8383 31.5336 16.0731 31.5247 16.3068 31.5016C16.3068 31.4837 15.709 30.8593 14.9794 30.1188L13.6519 28.745L13.3882 28.8163C12.3244 29.084 11.5069 27.8261 12.1486 26.9162C12.9222 25.8367 14.6541 26.6842 14.2761 27.951L14.2145 28.1562L14.6893 28.6468C15.9376 29.9493 16.8695 30.886 16.8959 30.886C16.9222 30.886 16.9222 30.5381 16.9134 30.1188L16.9046 29.3516L16.764 29.2713C15.6739 28.6647 16.0959 26.9786 17.3266 26.9786C18.5574 26.9786 18.9882 28.6558 17.8981 29.2713L17.7574 29.3516L17.7486 30.556L17.7398 31.7603L18.6365 32.6792C19.1288 33.1787 19.5508 33.598 19.5684 33.598C19.586 33.598 19.5948 32.2153 19.5948 30.5292V27.4603L17.8629 25.6851L16.131 23.9098H13.8629L13.8014 24.0436C13.5376 24.6056 12.7552 24.8822 12.2189 24.6056C11.5596 24.2666 11.3134 23.4013 11.7178 22.8482C12.2981 22.0631 13.2739 22.1077 13.7926 22.9552L13.8981 23.1336H14.5838C15.0937 23.1336 15.2695 23.1247 15.2695 23.0801C15.2695 23.0533 14.7156 22.4646 14.0387 21.7776L12.8079 20.5198L12.7992 19.2084L12.7904 17.897L12.6497 17.8256C11.5508 17.2279 11.964 15.5507 13.2123 15.5507C14.4343 15.5507 14.8651 17.0941 13.8277 17.781L13.6167 17.9237V20.2254L14.7156 21.3405C15.3222 21.9561 15.8321 22.4556 15.8497 22.4556C15.8673 22.4556 15.8761 22.1166 15.8761 21.6973V20.9391L15.7794 20.9034C15.3134 20.7249 14.9618 19.9845 15.1112 19.5028C15.4981 18.2806 17.0189 18.2538 17.4321 19.4671C17.5992 19.9667 17.2651 20.716 16.7816 20.9034L16.6849 20.9391V23.3477L18.109 24.793C18.8915 25.5869 19.5508 26.2382 19.5684 26.2382C19.586 26.2382 19.5948 24.3023 19.5948 21.9382V17.6383L18.7684 16.7997L17.942 15.9611L17.7574 16.0146C16.6585 16.3269 15.7706 15.069 16.4387 14.1323C17.2739 12.9636 19.0233 13.9896 18.5134 15.3456C18.4959 15.3991 19.9024 16.8711 19.9816 16.8711C20.0079 16.8711 20.3596 16.5321 20.764 16.1217L21.5024 15.3723L21.4409 15.1939C21.0365 14.0431 22.5662 13.1064 23.4189 13.9806C24.298 14.8727 23.3926 16.4072 22.2145 16.0057L22.0563 15.9522L21.2299 16.7908L20.4035 17.6293V23.66C20.4035 26.9786 20.4211 29.6906 20.4299 29.6906C20.4387 29.6906 20.9046 29.2446 21.4409 28.6915L22.4255 27.6923V25.2122L22.2849 25.1498C21.1596 24.677 21.5728 22.866 22.8123 22.866C24.0695 22.866 24.4915 24.6056 23.3662 25.1498L23.2343 25.2122V26.0151C23.2292 26.283 23.238 26.5511 23.2607 26.818C23.2783 26.818 23.7706 26.3363 24.3508 25.7386L25.4145 24.6591V22.9284L24.553 22.0363L23.6915 21.1442L23.5596 21.1978C22.4167 21.6795 21.4233 20.1094 22.2937 19.1994C23.1288 18.3252 24.6057 19.1548 24.3068 20.3324L24.2365 20.6001L24.7991 21.171C25.1068 21.4832 25.3706 21.7419 25.3882 21.7419C25.4057 21.7419 25.4233 20.9034 25.4233 19.8774V18.0129L25.2739 17.9327C24.1574 17.3439 24.5706 15.6489 25.8277 15.6578C27.0849 15.6667 27.4805 17.4331 26.3464 17.9416L26.2321 17.9951V19.8774C26.2321 20.9123 26.2497 21.7598 26.2673 21.7598C26.4079 21.7598 27.375 20.6536 27.3486 20.5198C27.0057 18.7623 29.2563 18.12 29.6695 19.8596C29.8717 20.7071 28.8871 21.5546 28.0958 21.2245L27.964 21.171L27.0936 22.0542L26.2233 22.9374V24.9535L25.0365 26.1668C24.3772 26.8359 23.8409 27.4068 23.8409 27.4336C23.8409 27.4603 24.2277 27.4871 25.5024 27.4871H27.164L27.2607 27.3087C28.0607 25.9259 30.0914 27.0054 29.3794 28.4417C28.9574 29.2892 27.8057 29.3159 27.2958 28.4952L27.1816 28.3168H22.9618L21.6783 29.6192L20.3948 30.9217V32.2688C20.3948 33.0628 20.4123 33.6159 20.4299 33.6159C20.4475 33.6159 20.9398 33.1252 21.5112 32.5275L22.5574 31.4391H25.0717L25.1684 31.2518C25.7838 30.0742 27.6915 30.7611 27.3925 32.0458C27.1288 33.2055 25.7222 33.4375 25.1596 32.4205L25.0717 32.2599H22.8739L21.7134 33.4375C21.0717 34.0887 20.553 34.624 20.553 34.624C20.553 34.624 23.1288 34.6329 26.2849 34.6329H32.0079L32.1486 34.5437C32.4827 34.3206 32.4563 34.8559 32.4563 28.6022V23.0533H33.8892C35.7794 23.0533 36.0167 22.9641 36.0167 22.2505C36.0167 21.9114 36.0343 21.9293 34.1794 20.0113L32.4563 18.2271V15.3812C32.4563 12.3927 32.4563 12.4819 32.2717 12.2589C32.1046 12.0537 32.0255 12.0448 30.4871 12.0448C28.509 12.0448 28.6057 11.9823 28.5706 13.258C28.553 13.829 28.5354 14.0788 28.509 14.0788C28.4827 14.0788 27.4805 13.0707 26.2849 11.8396C21.8541 7.28092 20.5442 5.9606 20.3948 5.88031C20.2101 5.78218 19.8057 5.77326 19.6035 5.86247ZM17.1772 14.4178C17.0941 14.4607 17.0255 14.5277 16.9801 14.6103C16.9347 14.6929 16.9145 14.7874 16.9222 14.8817C16.9222 15.3366 17.4761 15.524 17.775 15.1761C18.1266 14.7657 17.6343 14.1323 17.1772 14.4178ZM22.3464 14.4267C22.1442 14.5516 22.109 14.6229 22.1002 14.8638C22.0965 14.9662 22.1252 15.0672 22.1821 15.1519C22.239 15.2366 22.3211 15.3005 22.4164 15.3344C22.5118 15.3684 22.6153 15.3704 22.7118 15.3403C22.8084 15.3102 22.8929 15.2495 22.953 15.1671C23.3046 14.7389 22.8123 14.1412 22.3464 14.4267ZM13.0101 16.2912C12.5178 16.5053 12.6673 17.2636 13.1948 17.2636C13.2789 17.2562 13.3604 17.2299 13.4334 17.1868C13.5063 17.1436 13.569 17.0845 13.6167 17.0138C13.8453 16.5767 13.4409 16.0949 13.0101 16.2912ZM25.6431 16.3715C25.2387 16.5499 25.2387 17.1654 25.6519 17.2993C26.2497 17.4955 26.5926 16.6123 26.0123 16.3715C25.8365 16.3001 25.8013 16.3001 25.6431 16.3715ZM16.0871 19.3333C16.0142 19.3646 15.9496 19.413 15.8986 19.4745C15.8476 19.536 15.8117 19.6088 15.7937 19.6871C15.7757 19.7654 15.7762 19.8468 15.7951 19.9249C15.814 20.0029 15.8508 20.0753 15.9025 20.1362C16.1838 20.4752 16.7552 20.2611 16.7552 19.815C16.76 19.732 16.7439 19.6491 16.7084 19.5742C16.673 19.4992 16.6194 19.4346 16.5526 19.3864C16.4858 19.3383 16.408 19.3081 16.3266 19.2988C16.2452 19.2895 16.1627 19.3014 16.0871 19.3333ZM22.9706 19.5741C22.5046 19.7793 22.5926 20.4662 23.0849 20.5287C23.4101 20.5644 23.6475 20.3592 23.6475 20.038C23.6387 19.6901 23.2695 19.4403 22.9706 19.5741ZM28.3068 19.5741C27.8409 19.7793 27.9288 20.4662 28.4211 20.5287C29.0013 20.5911 29.2123 19.8328 28.6849 19.592C28.4914 19.5028 28.4739 19.5028 28.3068 19.5741ZM12.4915 23.0623C12.0959 23.2318 12.1574 23.8473 12.5794 23.9901C13.1332 24.1774 13.4761 23.2853 12.931 23.0623C12.8629 23.0271 12.7876 23.0088 12.7112 23.0088C12.6349 23.0088 12.5595 23.0271 12.4915 23.0623ZM22.6101 23.6421C22.4431 23.7135 22.3464 23.8741 22.3464 24.0971C22.344 24.204 22.3763 24.3086 22.4383 24.395C22.5003 24.4814 22.5886 24.5447 22.6896 24.5751C22.7906 24.6056 22.8986 24.6015 22.997 24.5634C23.0955 24.5254 23.1788 24.4556 23.2343 24.3647C23.498 23.9098 23.0761 23.428 22.6101 23.6421ZM12.9662 27.1392C12.6409 27.2106 12.5178 27.7101 12.764 27.951C13.0101 28.1919 13.2299 28.1919 13.4673 27.951C13.8189 27.6031 13.4673 27.0321 12.9662 27.1392ZM28.1838 27.389C27.7882 27.4693 27.7266 28.1294 28.0958 28.3257C28.207 28.3839 28.3361 28.396 28.4559 28.3594C28.5756 28.3227 28.6767 28.2403 28.7376 28.1294C28.975 27.7458 28.6321 27.2908 28.1838 27.389ZM17.2035 27.7101C16.7728 27.8529 16.6937 28.3703 17.0629 28.6201C17.5376 28.9323 18.0563 28.3078 17.6783 27.8796C17.6213 27.8109 17.5472 27.7589 17.4637 27.7291C17.3802 27.6993 17.2904 27.6927 17.2035 27.7101ZM25.8717 31.4748C25.5816 31.7781 25.7838 32.3223 26.1882 32.3223C26.5926 32.3223 26.8299 31.9476 26.6541 31.5908C26.6165 31.5234 26.5643 31.4656 26.5013 31.4218C26.4384 31.378 26.3664 31.3494 26.2909 31.3382C26.2154 31.327 26.1383 31.3335 26.0657 31.3572C25.993 31.3809 25.9267 31.4211 25.8717 31.4748ZM13.4145 31.573C13.3332 31.6584 13.2849 31.7707 13.2784 31.8893C13.2718 32.0078 13.3075 32.1249 13.379 32.219C13.4504 32.3131 13.5528 32.378 13.6674 32.4019C13.7821 32.4258 13.9014 32.407 14.0036 32.3491C14.4519 32.1171 14.2761 31.4213 13.7662 31.4213C13.5728 31.4213 13.5376 31.4391 13.4145 31.573Z"
		fill="#FBFBFC" />
</svg>
