<svg xmlns="http://www.w3.org/2000/svg" width="30" height="30" fill="none"><path d="M10.137 20.938c.052-.078.033-.163-.059-.254-.117-.091-.208-.104-.273-.039-.052.078-.033.163.059.254.117.091.208.104.273.039zm-.547-.801c-.065-.091-.143-.117-.234-.078-.078.052-.078.13 0 .234.091.104.169.137.234.098.078-.052.078-.137 0-.254zm-.801-.781c.026-.052-.007-.104-.098-.156-.091-.026-.143-.013-.156.039-.039.065-.013.117.078.156.104.026.163.013.176-.039zm.41.449c.026-.013.036-.042.029-.088s-.029-.081-.068-.107c-.078-.091-.143-.111-.195-.059s-.046.124.02.215c.078.078.15.091.215.039zm1.68 1.465c.026-.091-.033-.163-.176-.215-.117-.039-.202-.013-.254.078-.026.091.033.163.176.215.117.039.202.013.254-.078zm.82.059c0-.104-.078-.156-.234-.156-.13 0-.195.052-.195.156s.072.156.215.156.215-.052.215-.156zm.762-.137c-.026-.091-.111-.124-.254-.098s-.202.085-.176.176c.026.104.104.143.234.117s.195-.091.195-.195zM25 15a9.63 9.63 0 0 0-2.93-7.07A9.63 9.63 0 0 0 15 5a9.63 9.63 0 0 0-7.07 2.93A9.63 9.63 0 0 0 5 15a9.67 9.67 0 0 0 1.914 5.869c1.276 1.738 2.917 2.946 4.922 3.623.234.039.407.006.518-.098s.166-.234.166-.391l-.02-1.856-.303.049c-.124.02-.355.033-.693.039a4.27 4.27 0 0 1-.937-.078c-.287-.059-.57-.189-.85-.391s-.472-.472-.576-.811c-.299-.768-.671-1.25-1.113-1.445a.36.36 0 0 1-.088-.068l-.156-.156-.137-.185.078-.146.381-.068c.078 0 .176.013.293.039s.313.127.586.303.488.407.645.693c.208.365.452.638.732.82s.563.273.85.273a3.52 3.52 0 0 0 .742-.068c.208-.046.404-.107.586-.186.091-.612.306-1.061.645-1.348-.638-.078-1.198-.199-1.68-.361a5.24 5.24 0 0 1-1.426-.762c-.469-.345-.83-.84-1.084-1.484s-.381-1.422-.381-2.334c0-1.029.345-1.921 1.035-2.676-.312-.807-.28-1.693.098-2.656.247-.078.602-.029 1.064.146a6.45 6.45 0 0 1 1.182.576l.508.313c.755-.221 1.588-.332 2.5-.332s1.745.111 2.5.332l.557-.352c.228-.143.589-.312 1.084-.508s.866-.254 1.113-.176c.378.964.41 1.849.098 2.656.69.755 1.035 1.647 1.035 2.676 0 .742-.091 1.396-.273 1.963s-.413 1.022-.693 1.367a3.6 3.6 0 0 1-1.045.869c-.417.234-.824.404-1.221.508s-.843.182-1.338.234c.456.404.684 1.022.684 1.855l-.01 1.738-.01.996c0 .156.055.287.166.391s.283.137.518.098c2.005-.677 3.646-1.885 4.922-3.623A9.67 9.67 0 0 0 25 15zm5-9.375v18.75c0 1.549-.55 2.874-1.65 3.975S25.925 30 24.375 30H5.625c-1.549 0-2.874-.55-3.975-1.65S0 25.925 0 24.375V5.625C0 4.076.55 2.751 1.65 1.65S4.076 0 5.625 0h18.75c1.549 0 2.874.55 3.975 1.65S30 4.076 30 5.625z" fill="#fff"/></svg>
