<?xml version="1.0" encoding="UTF-8"?>
<svg width="24" height="24" version="1.1" viewBox="0 0 24 24" xmlns="http://www.w3.org/2000/svg">
 <g transform="matrix(1.6667 0 0 1.6667 -6.3333 -4.6667)" fill="#244583">
  <path d="m10.9 2.8c-3.9 0-7.1 3.3-7.1 7.2s3.2 7.2 7.2 7.2c3.9 0 7.1-3.2 7.2-7.2-0.1-3.9-3.3-7.2-7.3-7.2zm0 14a6.81 6.81 0 0 1-6.8-6.8c0-3.7 3.1-6.8 6.8-6.8a6.81 6.81 0 0 1 6.8 6.8 6.74 6.74 0 0 1-6.8 6.8zm-5.8-8.8c0.1 0 0.1 0 0.1-0.1 0.2-0.7 0.6-1.3 1.1-1.8 0.1-0.1 0-0.2 0-0.2h-0.2c-0.6 0.6-0.9 1.2-1.2 1.9v0.1c0.1 0.1 0.1 0.1 0.2 0.1z"/>
  <path d="m4.7 9.9h-0.1v0.1c0 0.7 0.1 1.5 0.4 2.2 0 0.1 0.1 0.1 0.1 0.1h0.1c0.1 0 0.1-0.1 0.1-0.2-0.3-0.7-0.4-1.4-0.4-2.1 0-0.1-0.1-0.1-0.2-0.1zm7.2-5.9c0.7 0.1 1.4 0.4 2 0.7h0.1c0.1 0 0.1 0 0.2-0.1 0-0.1 0-0.1-0.1-0.2-0.6-0.4-1.3-0.6-2.1-0.7-0.1 0-0.2 0-0.2 0.1s0.1 0.2 0.1 0.2zm-5.6 9.9c-0.1-0.1-0.2-0.1-0.2 0-0.1 0-0.1 0.1-0.1 0.2 0.5 0.6 1 1 1.7 1.4h0.1c0.1 0 0.1 0 0.2-0.1s0-0.1-0.1-0.2a5.09 5.09 0 0 1-1.6-1.3zm1.5-9.1c0.7-0.4 1.3-0.6 2-0.8 0.1 0 0.1 0 0.2-0.1s0-0.1 0-0.2l-0.1-0.1c-0.8 0.3-1.5 0.5-2.2 0.9-0.1 0-0.1 0.1-0.1 0.2 0.1 0 0.1 0.1 0.2 0.1zm9.3 5c-0.1 0-0.1 0.1-0.1 0.2 0 0.7-0.1 1.4-0.4 2.1v0.1s0 0.1 0.1 0.1h0.1c0.1 0 0.1 0 0.1-0.1 0.3-0.7 0.4-1.4 0.4-2.2 0-0.1-0.1-0.2-0.2-0.2zm-5.1 6.2c-0.7 0.1-1.4 0.1-2.1 0-0.1 0-0.1 0-0.2 0.1v0.2c0 0.1 0.1 0.1 0.1 0.1 0.4 0.1 0.7 0.1 1.1 0.1s0.7 0 1.1-0.1c0.1 0 0.1-0.1 0.1-0.2s-0.1-0.3-0.1-0.2zm4.7-8c0.1 0 0.2-0.1 0.1-0.2-0.3-0.7-0.6-1.3-1.1-1.9l-0.1-0.1c-0.1 0-0.1 0-0.1 0.1v0.2c0.5 0.5 0.8 1.2 1.1 1.8 0 0.1 0.1 0.1 0.1 0.1zm-1.2 5.9c-0.5 0.5-1 1-1.6 1.4-0.1 0-0.1 0.1-0.1 0.2s0.1 0.1 0.2 0.1h0.1a11.51 11.51 0 0 0 1.7-1.4v-0.2c0-0.1-0.1-0.1-0.1-0.1-0.1-0.1-0.1-0.1-0.2 0z"/>
  <path d="m10.9 4.5c-3.1 0-5.5 2.5-5.5 5.5 0 3.1 2.5 5.5 5.5 5.5 3.1 0 5.5-2.5 5.5-5.5 0-3.1-2.4-5.5-5.5-5.5zm0 10.7c-2.9 0-5.2-2.3-5.2-5.2s2.3-5.2 5.2-5.2 5.2 2.3 5.2 5.2-2.3 5.2-5.2 5.2zm2-8.4c-0.6-0.2-1.2 0-1.7 0.4l-1.4 1.5-1.6 1.6c-0.5 0.5-0.6 1.2-0.4 1.9 0.3 0.6 0.9 1.1 1.6 1.1 0.5 0 0.9-0.2 1.2-0.5l3-3c0.4-0.4 0.6-1.1 0.4-1.7a1.63 1.63 0 0 0-1.1-1.3zm-3.1 4.3c0.2 0.2 0.3 0.3 0.5 0.4h0.1l-0.5 0.5c-0.2 0.2-0.6 0.2-0.9 0-0.2-0.2-0.2-0.6 0-0.9l0.5-0.5v0.1c0.1 0.1 0.1 0.2 0.3 0.4zm0.8-0.8c-0.1-0.1-0.1-0.2-0.2-0.3v-0.4c0.1 0 0.1-0.1 0.2-0.1h0.1c0.1 0 0.2 0 0.3 0.1s0.2 0.1 0.2 0.2c0.1 0.1 0.1 0.2 0.1 0.3s0 0.2-0.1 0.3h-0.5zm1.6-2.4h0.2c0.2 0 0.3 0.1 0.4 0.2 0.2 0.1 0.2 0.2 0.2 0.4v0.2c0 0.1-0.1 0.2-0.1 0.2l-0.5 0.5v-0.1c-0.1-0.1-0.2-0.3-0.4-0.4-0.1-0.1-0.3-0.2-0.5-0.3l0.5-0.5c0-0.1 0.1-0.2 0.2-0.2zm-1.8 4.6a1.52 1.52 0 0 1-2 0c-0.5-0.5-0.6-1.4 0-2l0.9-0.9v0.7l-0.6 0.6c-0.1 0.1-0.1 0.2-0.2 0.3v0.4c0 0.1 0 0.2 0.1 0.3 0 0.1 0.1 0.2 0.2 0.3h0.1c0.1 0.1 0.1 0.1 0.2 0.1h0.1c0.1 0 0.2 0.1 0.3 0.1s0.3 0 0.4-0.1c0.1 0 0.2-0.1 0.3-0.2l1.5-1.5c0.1-0.1 0.1-0.2 0.1-0.2v-0.8s0-0.1-0.1-0.1l-0.3-0.3h-0.4v-0.2l0.2-0.2c0.1 0 0.1 0 0.2 0.1h0.1c0.1 0 0.2 0.1 0.2 0.2h0.1c0.2 0.2 0.3 0.4 0.4 0.6v0.7c0 0.1-0.1 0.2-0.1 0.3s-0.1 0.2-0.2 0.3l-0.1 0.1zm3-3-0.9 0.9v-0.6l0.6-0.6c0.4-0.4 0.4-1 0-1.3-0.4-0.4-1-0.4-1.3 0l-1.5 1.5c0 0.1-0.1 0.2-0.1 0.2v0.6l0.1 0.1s0 0.1 0.1 0.1l0.2 0.2s0.1 0 0.1 0.1h0.4l-0.4 0.4h-0.1c-0.1 0-0.2-0.1-0.2-0.1l-0.3-0.3c-0.1-0.1-0.2-0.3-0.3-0.5v-0.8c0-0.1 0-0.1 0.1-0.2 0-0.1 0-0.1 0.1-0.2 0 0 0-0.1 0.1-0.1 0-0.1 0.1-0.1 0.1-0.2l1.5-1.5c0.6-0.6 1.5-0.6 2 0 0.3 0.8 0.3 1.7-0.3 2.3z"/>
 </g>
</svg>
