<?xml version="1.0" encoding="UTF-8"?>
<svg width="140" height="49.462" fill="none" version="1.1" viewBox="0 0 140 49.462" xmlns="http://www.w3.org/2000/svg">
    <g transform="translate(0 -116.61)">
        <path d="m0.18555 116.61v49.461h139.65v-49.461z" opacity="0" stroke-width=".3441"/>
        <path d="m32.219 127.22c-2.7526 0-4.9463 2.008-4.9463 4.95s2.1937 4.947 4.9463 4.95c2.0071 0 3.183-1.005 3.9139-2.152l-1.4333-0.732c-0.2545 0.43-0.6179 0.785-1.0535 1.029-0.4355 0.245-0.9278 0.37-1.4271 0.363-1.8203 0-3.2251-1.449-3.2251-3.458s1.4048-3.458 3.2251-3.458c0.4986-4e-3 0.9896 0.123 1.4245 0.367 0.435 0.244 0.7989 0.597 1.0561 1.024l1.4333-0.731c-0.7161-1.149-1.91-2.152-3.9139-2.152zm73.535 19.421c0-2.855-2.021-4.95-4.889-4.95-2.8675 0-4.8893 2.092-4.8893 4.947s2.025 4.95 4.8893 4.95c2.865 0 4.889-2.092 4.889-4.947zm-8.0528 0c0-1.98 1.2286-3.458 3.1638-3.458 1.919 0 3.164 1.493 3.164 3.458s-1.233 3.458-3.164 3.458c-1.9309 0-3.1638-1.478-3.1638-3.458zm-37.394 2.143c0.3863 0.416 0.8543 0.749 1.3747 0.976 0.5205 0.227 1.0823 0.344 1.6501 0.344 1.3711 0 1.9205-0.674 1.9205-1.306 0-0.854-1.0014-1.114-2.1509-1.413l-0.028-7e-3c-1.563-0.388-3.3981-0.845-3.3981-2.87 0-1.584 1.3911-2.798 3.4804-2.798 1.4902 0 2.6946 0.473 3.5858 1.335l-0.9608 1.247c-0.7446-0.746-1.7634-1.09-2.7664-1.09-1.0029 0-1.6199 0.474-1.6199 1.191 0 0.743 0.9674 0.988 2.097 1.274l0.0123 3e-3c1.582 0.402 3.4551 0.89 3.4551 2.97 0 1.593-1.118 2.956-3.6987 2.956-1.7634 0-3.0396-0.618-3.8854-1.521zm-27.785 0.799h-4.5298l-0.7024 1.836h-1.8351l3.7556-9.571h2.0935l3.7567 9.571h-1.8351zm-4.0573-1.478h3.5858l-1.7929-4.835zm52.549 13.007c0-2.942 2.1927-4.951 4.9453-4.951 2.0039 0 3.1977 1.004 3.9149 2.153l-1.4343 0.731c-0.2574-0.428-0.6217-0.781-1.057-1.025-0.4354-0.244-0.9268-0.37-1.4257-0.366-1.8203 0-3.2252 1.449-3.2252 3.458 0 2.008 1.4049 3.458 3.2252 3.458 0.4993 7e-3 0.9916-0.119 1.4271-0.363 0.4356-0.245 0.7989-0.6 1.0535-1.03l1.4343 0.733c-0.7319 1.147-1.9068 2.152-3.9149 2.152-2.7421-3e-3 -4.9432-2.008-4.9432-4.95zm-38.264 2.143c0.3862 0.416 0.8542 0.748 1.3747 0.976 0.5205 0.227 1.0822 0.344 1.6501 0.344 1.371 0 1.9216-0.674 1.9216-1.306 0-0.854-1.002-1.115-2.1529-1.413l-0.0271-7e-3c-1.562-0.388-3.3971-0.845-3.3971-2.87 0-1.584 1.39-2.799 3.4804-2.799 1.4913 0 2.6957 0.474 3.5858 1.336l-0.9597 1.247c-0.7456-0.746-1.7634-1.09-2.7674-1.09-1.0041 0-1.62 0.474-1.62 1.191 0 0.743 0.9675 0.988 2.0971 1.274l0.0122 3e-3c1.582 0.402 3.4551 0.89 3.4551 2.97 0 1.593-1.1179 2.955-3.6987 2.955-1.7634 0-3.0395-0.617-3.8854-1.521zm8.2-6.936h6.5527v1.478h-4.8726v2.481h4.7745v1.478h-4.7745v2.66h4.8747v1.477h-6.5516zm9.9498 5.998h1.6632l2.1219 3.573h1.9353l-2.3371-3.76c1.1475-0.186 2.2654-1.105 2.2654-2.811 0-1.766-1.2329-3-3.1249-3h-4.2008v9.574h1.677zm0.0021-4.519h2.2918c0.946 0 1.6368 0.602 1.6368 1.521 0 0.918-0.6855 1.521-1.6347 1.521h-2.2939zm6.177-1.479h1.9068l2.8961 7.748 2.8961-7.748h1.9068l-3.7599 9.574h-2.0935zm12.329 0h-1.6769v9.574h1.6769zm18.362 0h-6.5484l-0.0042 9.574h6.5526v-1.477h-4.8746v-2.66h4.7734v-1.478h-4.7734v-2.481h4.8746zm-63.211-12.992h2.8961l0.0032 8.095h1.6769v-8.095h2.9003v-1.478h-7.4765zm11.168 0h-2.8961v-1.478h7.4702v1.478h-2.8972v8.095h-1.6769zm12.55-1.479h-6.5579l0.0063 9.575h6.5516v-1.478h-4.8831v-2.66h4.7776v-1.478h-4.7692v-2.481h4.8747zm9.4706 1.479h2.8961v8.095h1.6769v-8.095h2.8961v-1.478h-7.4691zm14.021 6.256h-4.5351l-0.7024 1.836h-1.8362l3.7568-9.571h2.0935l3.7567 9.571h-1.8362zm-4.0573-1.478h3.5858l-1.7929-4.835zm6.0936-4.778h2.8961v8.095h1.677v-8.095h2.8961v-1.478h-7.4692zm8.8879-1.479h1.6779v9.575h-1.6779zm16.358 2.598v6.977h-1.678v-9.575h1.72l4.89 6.787v-6.787h1.678v9.575h-1.621zm-67.111-17.226c2.8666 0 4.8884 2.095 4.8884 4.95s-2.0239 4.947-4.8884 4.947c-2.8644 0-4.8894-2.095-4.8894-4.95s2.0218-4.947 4.8894-4.947zm0 1.492c-1.9363 0-3.1639 1.478-3.1639 3.458s1.2329 3.458 3.1639 3.458c1.9311 0 3.164-1.493 3.164-3.458s-1.2455-3.458-3.164-3.458zm11.832 8.24 2.9341-7.25 0.0052 7.25h1.6769v-9.575h-2.3645l-2.6103 6.439-2.5945-6.439h-2.3656v9.575h1.6769v-7.247l2.9257 7.247zm14.905-7.25-2.9383 7.25h-0.7172l-2.9172-7.25v7.25h-1.6874v-9.575h2.3656l2.5955 6.439 2.6092-6.439h2.3656v9.575h-1.6758zm5.4004-2.325h-1.6874v5.797c0 2.354 1.3752 3.946 4.1427 3.946 2.7674 0 4.13-1.579 4.13-3.96v-5.783h-1.6874v5.74c0 1.521-0.8395 2.511-2.4468 2.511-1.6074 0-2.4511-0.99-2.4511-2.511zm10.298 2.598v6.977h-1.6769v-9.575h1.7202l4.8957 6.785v-6.787h1.678v9.577h-1.6242zm10.318-2.598h-1.6727l-0.0042 9.575h1.6769zm4.3244 1.479h-2.9003v-1.478h7.4691v1.478h-2.896v8.095h-1.6728zm4.9838-1.477 3.714 5.594v3.978h1.676v-3.978l3.699-5.594h-1.921l-2.61 4.104-2.636-4.104z" clip-rule="evenodd" fill="#244583" fill-rule="evenodd"/>
    </g>
</svg>
