<svg xmlns="http://www.w3.org/2000/svg" xmlns:xlink="http://www.w3.org/1999/xlink" width="201" height="55" fill="none"><g fill="#faf9f8"><path d="M71.952 22.837c-1.352 0-2.399.51-3.141 1.53-.742 1.012-1.113 2.427-1.113 4.243 0 3.779 1.418 5.668 4.254 5.668 1.19 0 2.631-.297 4.324-.893v3.014c-1.391.58-2.944.869-4.66.869-2.465 0-4.351-.746-5.657-2.237C64.653 33.532 64 31.384 64 28.586c0-1.762.321-3.304.962-4.625.641-1.329 1.561-2.345 2.759-3.049 1.206-.711 2.616-1.066 4.231-1.066 1.646 0 3.3.398 4.961 1.194l-1.159 2.921a19.23 19.23 0 0 0-1.913-.788 5.71 5.71 0 0 0-1.889-.336zm10.479 7.697c0 1.283.209 2.253.626 2.91.425.657 1.113.985 2.063.985.943 0 1.619-.325 2.029-.974.417-.657.626-1.631.626-2.921 0-1.283-.209-2.245-.626-2.886s-1.101-.962-2.052-.962c-.943 0-1.623.321-2.04.962-.417.634-.626 1.596-.626 2.886zm8.96 0c0 2.11-.556 3.76-1.669 4.95s-2.662 1.785-4.648 1.785c-1.244 0-2.341-.27-3.292-.811-.951-.549-1.681-1.333-2.191-2.353s-.765-2.21-.765-3.57c0-2.117.552-3.764 1.658-4.938s2.658-1.762 4.66-1.762c1.244 0 2.342.27 3.292.811a5.42 5.42 0 0 1 2.191 2.33c.51 1.012.765 2.199.765 3.559zm7.025 6.735c-1.522 0-2.72-.591-3.593-1.774-.866-1.182-1.298-2.821-1.298-4.915 0-2.125.441-3.779 1.321-4.961.889-1.19 2.11-1.785 3.663-1.785 1.63 0 2.874.634 3.733 1.901h.116c-.178-.966-.267-1.828-.267-2.585V19h3.547v18.037h-2.712l-.684-1.681h-.151c-.803 1.275-2.028 1.913-3.674 1.913zm1.24-2.817c.904 0 1.565-.263 1.982-.788.425-.526.657-1.418.696-2.678v-.383c0-1.391-.217-2.388-.649-2.991-.425-.603-1.121-.904-2.087-.904-.788 0-1.403.336-1.843 1.008-.433.665-.649 1.634-.649 2.91s.22 2.233.661 2.875c.441.634 1.07.951 1.889.951zm15.046-8.103c-.749 0-1.337.24-1.762.719-.425.471-.668 1.144-.73 2.017h4.961c-.015-.873-.243-1.546-.684-2.017-.44-.479-1.035-.719-1.785-.719zm.499 10.919c-2.087 0-3.717-.576-4.892-1.727s-1.762-2.782-1.762-4.892c0-2.171.541-3.848 1.623-5.031 1.089-1.19 2.592-1.785 4.509-1.785 1.831 0 3.257.522 4.277 1.565s1.53 2.485 1.53 4.324v1.716h-8.357c.038 1.005.336 1.789.892 2.353s1.337.846 2.342.846c.78 0 1.518-.081 2.214-.243a11.08 11.08 0 0 0 2.179-.777v2.736c-.618.309-1.279.537-1.982.684-.703.155-1.561.232-2.573.232zm20.123-.231h-3.536v-7.569c0-.935-.166-1.634-.498-2.098-.332-.471-.862-.707-1.588-.707-.989 0-1.704.332-2.145.997-.44.657-.66 1.75-.66 3.281v6.097h-3.536v-12.96h2.701l.475 1.658h.197c.394-.626.935-1.097 1.623-1.414.696-.325 1.484-.487 2.365-.487 1.507 0 2.651.41 3.431 1.229.781.811 1.171 1.986 1.171 3.524v8.45zm6.456-6.503c0 1.283.209 2.253.626 2.91.425.657 1.113.985 2.064.985.942 0 1.619-.325 2.028-.974.418-.657.626-1.631.626-2.921 0-1.283-.208-2.245-.626-2.886s-1.101-.962-2.052-.962c-.942 0-1.622.321-2.04.962-.417.634-.626 1.596-.626 2.886zm8.961 0c0 2.11-.557 3.76-1.669 4.95s-2.663 1.785-4.649 1.785c-1.244 0-2.341-.27-3.292-.811-.95-.549-1.681-1.333-2.191-2.353s-.765-2.21-.765-3.57c0-2.117.553-3.764 1.658-4.938s2.658-1.762 4.66-1.762c1.244 0 2.341.27 3.292.811s1.681 1.318 2.191 2.33.765 2.199.765 3.559zm8.381 3.918c.618 0 1.36-.135 2.225-.406v2.631c-.881.394-1.963.591-3.246.591-1.414 0-2.445-.355-3.094-1.066-.642-.719-.963-1.793-.963-3.223v-6.248h-1.692v-1.495l1.947-1.182 1.02-2.736h2.261v2.759h3.628v2.654h-3.628v6.248c0 .502.139.873.417 1.113.286.24.661.359 1.125.359zm13.087 2.585l-.684-1.762h-.093c-.595.75-1.209 1.271-1.843 1.565-.626.286-1.445.429-2.458.429-1.244 0-2.225-.355-2.944-1.066-.711-.711-1.066-1.723-1.066-3.037 0-1.376.479-2.388 1.437-3.037.966-.657 2.419-1.02 4.359-1.09l2.248-.069v-.568c0-1.314-.672-1.971-2.017-1.971-1.035 0-2.252.313-3.651.939l-1.171-2.388c1.492-.78 3.145-1.171 4.961-1.171 1.739 0 3.072.379 4 1.136s1.391 1.909 1.391 3.454v8.636h-2.469zm-1.044-6.005l-1.367.046c-1.028.031-1.793.216-2.296.556s-.753.858-.753 1.553c0 .997.572 1.495 1.715 1.495.82 0 1.473-.236 1.959-.707.495-.471.742-1.097.742-1.878v-1.066zm14.397-7.198a5.7 5.7 0 0 1 1.194.104l-.266 3.315c-.286-.077-.634-.116-1.044-.116-1.128 0-2.009.29-2.643.869-.626.58-.939 1.391-.939 2.434v6.596h-3.535v-12.96h2.678l.521 2.179h.174a4.84 4.84 0 0 1 1.623-1.75 4.02 4.02 0 0 1 2.237-.672zm1.693.243h3.871l2.446 7.291c.209.634.352 1.383.429 2.249h.07a9.95 9.95 0 0 1 .498-2.249l2.399-7.291h3.791l-5.483 14.617c-.502 1.352-1.221 2.365-2.156 3.037-.927.672-2.013 1.009-3.257 1.009-.611 0-1.21-.066-1.797-.197v-2.805a6.05 6.05 0 0 0 1.391.151 2.47 2.47 0 0 0 1.634-.58c.472-.379.839-.954 1.102-1.727l.208-.637-5.146-12.867zM27.843.74C12.883.74.74 12.883.74 27.843s12.143 27.104 27.104 27.104a27.15 27.15 0 0 0 27.104-27.104C54.947 12.883 42.804.74 27.843.74zm0 1.184c14.298.024 25.896 11.623 25.92 25.92 0 14.321-11.599 25.92-25.92 25.92s-25.92-11.599-25.92-25.92 11.599-25.92 25.92-25.92zm0 50.04a25.02 25.02 0 0 1-4.19-.355c-.213-.024-.402-.166-.474-.379a.59.59 0 0 1 .095-.592.57.57 0 0 1 .568-.189c2.628.45 5.326.45 7.977 0 .331-.047.639.166.687.473.047.331-.166.639-.473.686a24.81 24.81 0 0 1-4.19.355zM16.079 48.84c-.095 0-.213-.024-.284-.071a24.64 24.64 0 0 1-6.415-5.397c-.213-.26-.189-.615.071-.828s.615-.189.829.071a22.88 22.88 0 0 0 6.084 5.113.62.62 0 0 1 .284.663c-.047.26-.284.45-.568.45zm23.553 0c-.26 0-.497-.189-.568-.426a.59.59 0 0 1 .284-.663 23.5 23.5 0 0 0 6.107-5.113c.142-.166.355-.26.568-.213s.379.189.473.379c.071.213.024.426-.118.592a23.73 23.73 0 0 1-6.415 5.373l-.331.071zM5.734 36.531c-.26 0-.473-.166-.568-.402a23.45 23.45 0 0 1-1.444-8.261.68.68 0 0 1 .166-.426.57.57 0 0 1 .426-.166c.331 0 .592.26.592.592 0 2.675.473 5.326 1.397 7.835.118.308-.047.639-.355.758-.095.047-.142.047-.213.071zm44.242-.024c-.071 0-.142 0-.213-.024a.6.6 0 0 1-.331-.308c-.071-.142-.071-.308-.024-.45.923-2.509 1.373-5.184 1.373-7.859v-.047c0-.331.26-.592.592-.592s.592.26.592.592v.047a24.57 24.57 0 0 1-1.444 8.261c-.071.213-.308.355-.544.379zM5.711 20.411a.62.62 0 0 1-.497-.26.56.56 0 0 1-.071-.544c.971-2.651 2.367-5.113 4.19-7.267.213-.26.592-.284.828-.071s.284.592.071.829c-1.728 2.059-3.077 4.379-3.977 6.912a.56.56 0 0 1-.544.402zm44.242-.071c-.26 0-.473-.166-.568-.379-.923-2.509-2.272-4.853-4-6.888a.59.59 0 0 1-.095-.592c.071-.189.237-.355.45-.379s.426.047.568.213a23.91 23.91 0 0 1 4.213 7.243c.118.308-.047.639-.355.758-.071 0-.142.024-.213.024zM16.055 8.054c-.26 0-.497-.189-.568-.45s.047-.521.284-.663a24.01 24.01 0 0 1 7.859-2.888c.213-.047.426.047.568.213a.59.59 0 0 1 .095.592c-.071.213-.237.355-.45.379-2.628.473-5.16 1.397-7.48 2.746-.118.047-.213.071-.308.071zm23.529-.024c-.095 0-.213-.024-.284-.071a23.39 23.39 0 0 0-7.504-2.722c-.308-.071-.497-.379-.45-.686s.355-.521.663-.473a24.04 24.04 0 0 1 7.883 2.841c.237.142.355.402.284.663-.095.26-.331.426-.592.45zM27.843 48.84c-11.599 0-20.996-9.397-20.996-20.996S16.244 6.847 27.843 6.847 48.84 16.244 48.84 27.843c-.024 11.575-9.421 20.973-20.996 20.996zm0-40.809C16.907 8.03 8.03 16.907 8.03 27.843s8.877 19.813 19.813 19.813 19.813-8.877 19.813-19.813C47.633 16.907 38.779 8.054 27.843 8.03zm-1.112 25.73c-.047 0-.095 0-.142-.024-2.154-.568-3.858-2.201-4.545-4.308a6.51 6.51 0 0 1 1.16-6.155v-.024l.426-.473 5.279-5.279a6.58 6.58 0 0 1 6.32-1.704c2.272.615 4.024 2.367 4.64 4.64a6.49 6.49 0 0 1-1.704 6.32l-5.279 5.279c-.166.166-.331.308-.497.45a.58.58 0 0 1-.781-.047.58.58 0 0 1-.047-.781c1.089-1.349 1.468-3.125 1.018-4.782-.047-.213 0-.426.142-.568l2.486-2.485a2.38 2.38 0 0 0-.047-3.338c-.923-.923-2.414-.947-3.338-.047l-5.279 5.279a2.39 2.39 0 0 0-.308.379 2.4 2.4 0 0 0 3.314 3.314c.237-.142.544-.118.734.071s.237.497.071.734c-.142.213-.284.402-.45.568l-2.793 2.793c-.071.142-.237.189-.379.189zm-2.627-9.729c-1.113 1.373-1.468 3.196-.971 4.876a5.43 5.43 0 0 0 3.432 3.598l1.515-1.515c-1.278-.071-2.414-.805-3.006-1.941a3.58 3.58 0 0 1 .213-3.574c.142-.213.284-.402.45-.568l5.279-5.255c1.397-1.397 3.669-1.397 5.066 0s1.397 3.669 0 5.066l-2.249 2.249a6.59 6.59 0 0 1 .142 1.373c0 .379-.024.757-.095 1.136l3.48-3.456c2.107-2.107 2.107-5.515 0-7.599-2.107-2.107-5.515-2.107-7.598 0l-5.279 5.279c-.142.047-.26.166-.379.331z"/><use xlink:href="#B"/><use xlink:href="#C"/><use xlink:href="#B"/><use xlink:href="#C"/><path d="M22.139 40.105c-2.651 0-5.042-1.586-6.06-4.048a6.57 6.57 0 0 1 1.42-7.149l5.279-5.279c.166-.166.331-.308.497-.45a.58.58 0 0 1 .781.047.58.58 0 0 1 .047.781c-1.089 1.349-1.468 3.125-1.018 4.782.047.213 0 .426-.142.568l-2.486 2.485a2.38 2.38 0 0 0 .047 3.338c.923.923 2.414.947 3.338.047l5.279-5.255c.118-.118.213-.237.308-.379.26-.402.379-.852.402-1.326 0-.876-.497-1.681-1.255-2.107-.781-.426-1.704-.379-2.438.095-.237.142-.544.118-.734-.071s-.237-.497-.071-.734c.142-.213.284-.402.45-.568l2.77-2.793c.142-.142.355-.213.568-.166 2.154.568 3.858 2.201 4.545 4.308a6.51 6.51 0 0 1-1.16 6.155v.024l-.426.474-5.302 5.279a6.46 6.46 0 0 1-4.64 1.941zm-.308-13.824l-3.48 3.456c-2.059 2.107-2.036 5.468.047 7.551s5.444 2.107 7.551.047l5.279-5.279c.118-.118.237-.26.355-.402l.024-.024c1.113-1.373 1.468-3.196.97-4.876a5.43 5.43 0 0 0-3.432-3.598l-1.515 1.539c1.278.071 2.415.805 3.006 1.941a3.58 3.58 0 0 1-.213 3.574c-.142.213-.284.402-.45.568l-5.279 5.279c-1.397 1.397-3.669 1.397-5.066 0s-1.397-3.669 0-5.066l2.249-2.249c-.189-.781-.213-1.633-.047-2.462z"/><use xlink:href="#D"/><use xlink:href="#E"/><use xlink:href="#D"/><use xlink:href="#E"/></g><defs ><path id="B" d="M28.269 30.992c-1.326 0-2.533-.71-3.148-1.87s-.568-2.556.166-3.669a.55.55 0 0 1 .166-.166c1.089-.71 2.509-.781 3.669-.166s1.87 1.823 1.87 3.148c0 .686-.213 1.373-.592 1.965-.047.071-.095.118-.166.166-.592.379-1.255.592-1.965.592zM26.21 26.21c-.544.947-.402 2.13.379 2.888.758.757 1.965.923 2.888.379.213-.379.331-.781.331-1.207 0-.852-.45-1.657-1.207-2.083s-1.657-.402-2.391.024z"/><path id="C" d="M33.169 27.323c-.047 0-.095 0-.142-.024-.213-.047-.355-.213-.426-.426a5.37 5.37 0 0 0-3.787-3.787c-.213-.047-.355-.213-.402-.426s0-.426.166-.568l2.462-2.485c1.397-1.397 3.669-1.397 5.066 0s1.397 3.669 0 5.066l-2.486 2.462c-.142.118-.284.189-.45.189zm-3.125-5.066c1.515.663 2.722 1.87 3.385 3.385l1.799-1.823c.615-.592.876-1.491.663-2.32a2.39 2.39 0 0 0-1.704-1.704 2.36 2.36 0 0 0-2.32.663l-1.823 1.799z"/><path id="D" d="M28.269 30.992c-1.326 0-2.533-.71-3.148-1.87s-.568-2.556.166-3.669a.55.55 0 0 1 .166-.166c1.42-.923 3.29-.734 4.497.473s1.397 3.077.473 4.498c-.047.071-.095.118-.166.166-.615.355-1.278.568-1.988.568zM26.21 26.21c-.544.947-.402 2.13.379 2.888.758.757 1.965.923 2.888.379.213-.379.331-.781.331-1.207 0-.852-.473-1.633-1.207-2.059s-1.657-.426-2.391 0z"/><path id="E" d="M22.138 37.122a3.56 3.56 0 0 1-3.29-2.201c-.544-1.326-.237-2.864.781-3.906l2.462-2.462c.142-.142.379-.213.568-.166.213.047.355.213.426.426a5.37 5.37 0 0 0 3.787 3.787c.213.047.355.213.426.426.047.213 0 .426-.142.568l-2.462 2.462a3.62 3.62 0 0 1-2.556 1.065zm.118-7.078l-1.823 1.799a2.38 2.38 0 0 0 .047 3.338c.923.923 2.415.947 3.338.047l1.823-1.799c-1.515-.663-2.722-1.87-3.385-3.385z"/></defs></svg>